<svg width="350" height="656" viewBox="0 0 350 656" fill="none" xmlns="http://www.w3.org/2000/svg">
<rect width="350" height="656" fill="black" fill-opacity="0"/>
<rect width="350" height="656" rx="10" fill="#53379B"/>
<rect width="350" height="656" fill="black" fill-opacity="0"/>
<rect width="350" height="656" fill="black" fill-opacity="0"/>
<path d="M0 321V224.73C0 224.73 3.85196 220.46 7.70392 222.103C11.5559 223.745 11.5559 221.555 13.757 218.818C15.9581 216.08 16.5084 215.533 18.1592 213.89C19.8101 212.248 15.9581 208.416 19.8101 212.248C23.662 216.08 19.2598 213.89 28.6146 213.89C37.9693 205.868 44.5727 204.225 48.9749 204.773C53.3772 205.32 55.5783 203.678 55.5783 203.678C57.2291 207.51 59.9805 201.488 61.6314 202.036C63.2822 202.583 61.6314 200.941 68.785 205.868C75.9387 210.795 78.5335 208.058 79.634 210.795C80.7346 213.533 81.2849 219.007 87.338 214.628C93.391 210.248 92.8408 205.868 95.5922 205.868C98.3436 205.868 98.8938 203.131 101.645 207.51C104.397 211.89 105.497 209.153 107.698 214.08C109.899 219.007 111 221.745 111 221.745C111 221.745 99.4441 232.147 96.1424 236.527C92.8408 240.907 95.0419 237.622 91.7402 243.097C88.4385 248.571 90.0894 246.929 82.9357 251.856C75.7821 256.784 63.8325 263.163 61.6314 265.353C59.4303 267.543 62.1817 264.806 58.3297 275.208C54.4777 285.61 53.9275 287.253 52.2766 289.443C50.6258 291.632 52.2766 289.99 46.7738 292.18C41.271 294.37 37.9693 292.727 37.9693 292.727L34.1174 297.655C34.1174 297.655 33.0168 296.56 29.7151 298.202C26.4134 299.845 26.4134 301.487 24.2123 303.13C22.0112 304.772 24.2123 304.772 22.0112 304.772C19.8101 304.772 15.9581 302.582 14.3073 303.13C12.6564 303.677 12.6564 305.319 11.5559 307.509C10.4553 309.699 11.0056 309.699 9.35476 312.984C7.70392 316.269 0 321 0 321Z" fill="#FBCA50"/>
<path d="M346.073 137C343.818 137 341.645 140.34 339.389 142.011C337.134 143.681 334.961 145.936 326.607 148.691C318.252 151.447 320.508 150.362 317.166 152.032C313.824 153.702 312.738 153.702 310.482 154.788C308.226 155.873 306.555 155.372 303.213 158.713C299.871 162.053 297.114 164.809 293.188 167.648C289.261 170.404 289.846 170.989 285.418 177.669C280.99 184.35 284.332 180.425 267.037 180.425C249.743 180.425 254.756 181.511 250.328 186.521C245.9 191.532 248.072 189.277 246.401 195.457C244.73 201.553 244.145 202.722 243.059 208.819C241.973 214.915 237.461 212.743 234.704 214.915C231.947 217.17 231.362 217.671 225.765 221.011C220.167 224.351 223.509 223.767 221.838 229.947C220.167 236.043 218.496 240.552 216.825 243.893C215.154 247.233 212.898 248.903 204.042 252.828C195.103 256.753 201.285 255.584 197.943 260.094C194.601 264.52 194.601 266.19 182.32 274.04C170.038 281.806 170.623 281.305 165.025 282.391C159.428 283.476 158.342 284.645 153.329 287.986C148.316 291.326 146.06 296.921 142.718 304.688C139.376 312.454 139.376 317.465 131.022 324.73C122.667 331.996 120.411 339.177 117.654 343.102C114.897 347.027 109.299 354.794 104.871 360.389C100.443 365.984 79.222 362.059 77.0498 368.74C74.794 375.421 75.9637 373.166 74.794 379.346C73.7079 385.442 74.794 383.271 73.123 385.442C71.4521 387.697 72.0369 388.198 66.4392 391.538C60.8415 394.879 84.2349 406.57 72.5382 408.24C60.8415 409.91 56.9148 409.91 54.7426 404.315C52.4868 398.72 59.1706 398.72 58.6693 392.624C58.0845 386.528 56.9983 390.369 51.9855 383.187C46.9726 376.005 50.3145 384.273 47.5575 389.283C44.8004 394.294 42.5446 391.538 37.5317 387.613C32.5189 383.688 37.5317 392.624 42.5446 400.975C47.5575 409.326 40.8736 404.315 35.8608 403.23C30.8479 402.144 35.2759 408.825 33.605 425.527C33.4379 427.03 33.3544 428.283 33.2708 429.368C32.7695 430.12 32.1011 430.788 31.3492 431.038C28.5921 432.124 31.3492 431.038 33.0202 435.464C34.6911 439.89 34.1063 438.22 37.4482 443.231C40.7901 448.241 34.6911 448.241 34.6911 448.241C34.6911 448.241 15.8093 450.997 11.8826 450.997C7.95586 450.997 11.2978 454.922 11.8826 458.263C12.4674 461.603 11.8826 458.263 17.9816 460.517C24.0806 462.772 29.0934 466.112 31.3492 462.188C33.605 458.263 33.0202 461.603 39.1191 458.847C45.2181 456.091 39.1191 458.847 43.5472 457.177C47.9752 455.507 51.9019 461.102 70.2824 452.751C88.6629 444.4 74.7104 451.665 81.3943 448.325C88.0781 444.984 85.8223 447.74 90.3339 444.4C94.7619 441.06 90.3339 444.4 95.9316 441.644C101.529 438.888 100.944 440.558 107.628 438.888C114.312 437.218 110.97 437.218 118.74 434.963C126.51 432.709 120.996 432.709 128.181 432.709C135.366 432.709 132.609 433.293 136.536 429.368C140.462 425.443 138.207 426.612 142.635 421.017C147.063 415.422 157.673 419.347 157.673 419.347C157.673 419.347 161.015 418.261 173.297 413.251C185.578 408.24 179.981 410.495 186.664 407.155C193.348 403.814 190.591 403.23 191.677 399.388C191.761 399.054 191.844 398.72 191.928 398.553C192.095 398.971 192.763 399.138 194.518 398.302C198.946 396.048 198.445 394.962 210.141 386.611C221.838 378.26 213.483 384.941 217.41 384.356C221.337 383.772 223.008 385.442 227.436 381.016C231.864 376.59 226.851 378.761 231.362 372.08C232.866 369.742 233.451 368.74 233.618 368.322C233.535 368.656 233.618 369.241 234.704 369.241C237.461 369.241 235.79 370.911 238.046 370.327C240.302 369.742 238.046 370.327 239.717 365.901C241.388 361.475 239.717 365.901 240.803 359.804C241.889 353.708 244.145 363.145 248.573 367.07C253.001 370.995 248.573 367.07 250.829 365.4C253.085 363.729 254.171 366.485 258.098 364.815C262.024 363.145 259.184 359.22 261.439 355.879C263.695 352.539 262.526 352.539 266.452 351.453C270.379 350.368 267.538 357.55 267.538 359.804C267.538 362.059 270.88 359.22 273.136 355.879C275.392 352.539 278.734 351.954 284.248 346.944C289.846 341.933 286.504 344.689 287.59 340.848C288.676 336.923 293.188 341.432 295.945 340.848C298.702 340.263 299.871 338.593 300.373 334.751C300.874 330.91 307.057 330.826 307.057 330.826C307.057 330.826 309.814 331.411 310.983 326.901C312.069 322.475 314.91 324.647 314.91 324.647C314.91 324.647 320.508 321.306 324.936 320.221C329.364 319.135 328.862 316.296 332.204 311.87C335.546 307.444 333.875 309.615 335.546 305.773C337.217 301.849 350 294.082 350 294.082V144.766C350 144.766 348.329 137 346.073 137Z" fill="#3DE292"/>
<path d="M55 656H207.919C214.632 650.645 215.378 634.578 215.378 626.545C215.378 618.512 227.314 626.545 222.838 617.976C218.362 609.408 221.346 614.763 236.265 602.981C245.216 599.232 242.978 599.768 236.265 596.019C229.551 592.27 236.265 591.199 236.265 575.668C233.281 569.242 236.265 571.384 242.978 566.028C249.692 560.673 251.93 562.28 251.93 557.46V549.427C257.897 549.427 270.728 545.464 274.308 529.611C278.784 525.863 278.038 519.972 292.957 498.014C298.924 494.265 301.908 493.73 313.843 475.521C325.778 471.237 314.589 470.701 322.795 456.777C327.27 451.957 325.778 451.957 325.778 449.28C325.778 447.137 329.259 435.534 331 430H325.778V435.355C321.551 437.141 312.351 441.246 309.368 443.389C306.384 445.531 303.151 448.209 301.908 449.28C299.67 450.708 294.747 454.635 292.957 458.919C291.167 463.204 288.232 462.49 286.989 461.597C284.005 462.49 276.397 467.381 269.832 479.806C261.627 495.337 255.659 487.839 247.454 493.73C239.249 499.621 246.708 498.014 242.978 501.763C239.995 504.762 237.259 503.013 236.265 501.763L227.314 505.512C224.578 510.332 218.362 519.972 215.378 519.972C211.649 519.972 207.919 525.863 207.919 529.611C207.919 533.36 201.951 539.251 194.492 538.18C188.524 537.323 187.032 545.321 187.032 549.427C184.795 550.141 177.186 552.747 164.654 557.46C161.67 559.602 159.432 561.744 155.703 566.028C152.719 569.456 151.476 571.027 151.227 571.384C147.746 572.098 139.889 573.955 136.308 575.668C132.728 577.382 131.832 579.239 131.832 579.953C129.843 582.809 125.417 589.057 123.627 591.199C121.837 593.341 116.416 599.946 113.93 602.981C112.438 607.979 108.857 616.584 106.47 611.014C104.083 605.445 98.5135 611.193 96.027 614.763C94.2865 616.191 89.9103 618.833 86.3297 617.976C81.8541 616.905 78.1243 622.261 78.1243 626.545C78.1243 630.829 71.4108 637.256 63.9514 641.005C57.9838 644.004 55.4973 652.251 55 656Z" fill="#FBCA50"/>
<path d="M0 140V10C0 4.47716 4.47715 0 10 0H291C284.165 1.4629 270.496 5.09091 270.496 7.89969C270.496 11.4107 272.862 11.8495 270.496 13.1661C268.13 14.4828 259.455 13.1661 257.878 13.1661C256.967 13.1661 254.495 17.5115 253.19 16.7917C253.282 19.5648 251.964 22.3824 246.837 22.3824C233.431 22.3824 235.008 19.3103 231.065 24.5768C225.545 35.5486 223.179 34.6708 220.024 35.5486C208.195 43.0094 205.829 41.2539 203.463 43.0094C198.732 48.2759 188.48 36.8652 188.48 41.2539C188.48 45.6426 194 47.837 188.48 50.9091C182.959 53.9812 179.016 52.6646 179.016 53.9812C179.016 60.1254 176.151 64.8421 172.089 63.1975C165.536 60.5445 167.187 63.1975 160.878 63.1975C147.472 68.0251 147.472 63.6364 141.951 71.536C131.857 77.8558 131.098 100.371 128.882 78.1053C121.127 89.8947 123.971 81.0157 121.447 82.069C118.293 83.3856 114.35 81.1912 114.35 83.8244C114.35 89.5298 107.252 86.8965 104.886 88.2132C96.2114 92.6019 98.5772 87.7743 97.7886 94.3574C97 100.94 93.0569 98.3072 85.9594 101.379C75.7073 108.401 76.4959 104.451 76.4959 110.157C76.4959 114.721 74.6401 114.579 72.0114 114.579C72.0114 111.085 66.4721 118.632 63.5178 115.862C55.6216 111.912 52.8374 110.157 53.626 115.862C54.4146 121.567 53.626 121.129 49.6829 122.006C42.5854 124.201 40.2195 122.884 37.8537 124.201C18.9268 132.539 21.2927 127.712 14.1951 130.784C7.09756 133.856 4.73171 133.417 3.94309 135.172C3.3122 136.577 1.05149 138.976 0 140Z" fill="#3DE292"/>
</svg>
