<svg width="22" height="22" viewBox="0 0 22 22" fill="none" xmlns="http://www.w3.org/2000/svg">
<rect width="20" height="20" fill="black" fill-opacity="0" transform="translate(1 1)"/>
<circle cx="11" cy="11" r="10" stroke="#2EAE70" stroke-width="2" stroke-linecap="square"/>
<path d="M11 15C12.6569 15 14 13.6569 14 12L8 12C8 13.6569 9.34315 15 11 15Z" fill="#2EAE70"/>
<path d="M7 9C7 9.55228 6.55228 9.5 6 9.5C5.44772 9.5 5 9.55228 5 9C5 8.44772 5.44772 8 6 8C6.55228 8 7 8.44772 7 9Z" fill="#2EAE70"/>
<path d="M17 9C17 9.55228 16.5523 9.5 16 9.5C15.4477 9.5 15 9.55228 15 9C15 8.44772 15.4477 8 16 8C16.5523 8 17 8.44772 17 9Z" fill="#2EAE70"/>
<path fill-rule="evenodd" clip-rule="evenodd" d="M5.50008 8.99093C5.5303 8.99478 5.57127 8.99807 5.62633 8.99978C5.69761 9.002 5.76789 9.00143 5.85114 9.00076C5.89622 9.0004 5.9451 9 6 9C6.0549 9 6.10378 9.0004 6.14886 9.00076C6.23211 9.00143 6.30239 9.002 6.37367 8.99978C6.42873 8.99807 6.4697 8.99478 6.49992 8.99093C6.49508 8.71897 6.27311 8.5 6 8.5C5.72689 8.5 5.50492 8.71897 5.50008 8.99093ZM6.4956 9.05486C6.49559 9.05485 6.49566 9.05457 6.49583 9.05404L6.4956 9.05486ZM5.5044 9.05486C5.5044 9.05487 5.50431 9.0546 5.50417 9.05404L5.5044 9.05486ZM4.5 9C4.5 8.17157 5.17157 7.5 6 7.5C6.82843 7.5 7.5 8.17157 7.5 9C7.5 9.20213 7.45925 9.41348 7.33191 9.59659C7.20081 9.7851 7.01989 9.88374 6.85483 9.93479C6.69901 9.98297 6.53731 9.99517 6.40482 9.9993C6.31413 10.0021 6.21061 10.0013 6.11551 10.0006C6.07492 10.0003 6.03586 10 6 10C5.96414 10 5.92508 10.0003 5.88449 10.0006C5.78939 10.0013 5.68587 10.0021 5.59518 9.9993C5.46269 9.99517 5.30099 9.98297 5.14517 9.93479C4.98011 9.88374 4.79919 9.7851 4.66809 9.59659C4.54075 9.41348 4.5 9.20213 4.5 9ZM15.5001 8.99093C15.5303 8.99478 15.5713 8.99807 15.6263 8.99978C15.6976 9.002 15.7679 9.00143 15.8511 9.00076C15.8962 9.0004 15.9451 9 16 9C16.0549 9 16.1038 9.0004 16.1489 9.00076C16.2321 9.00143 16.3024 9.002 16.3737 8.99978C16.4287 8.99807 16.4697 8.99478 16.4999 8.99093C16.4951 8.71897 16.2731 8.5 16 8.5C15.7269 8.5 15.5049 8.71897 15.5001 8.99093ZM16.4956 9.05486C16.4956 9.05485 16.4957 9.05456 16.4958 9.054L16.4956 9.05486ZM15.5044 9.05486C15.5044 9.05487 15.5043 9.05459 15.5042 9.054L15.5044 9.05486ZM14.5 9C14.5 8.17157 15.1716 7.5 16 7.5C16.8284 7.5 17.5 8.17157 17.5 9C17.5 9.20213 17.4593 9.41348 17.3319 9.59659C17.2008 9.7851 17.0199 9.88374 16.8548 9.93479C16.699 9.98297 16.5373 9.99517 16.4048 9.9993C16.3141 10.0021 16.2106 10.0013 16.1155 10.0006C16.0749 10.0003 16.0359 10 16 10C15.9641 10 15.9251 10.0003 15.8845 10.0006C15.7894 10.0013 15.6859 10.0021 15.5952 9.9993C15.4627 9.99517 15.301 9.98297 15.1452 9.93479C14.9801 9.88374 14.7992 9.7851 14.6681 9.59659C14.5407 9.41348 14.5 9.20213 14.5 9Z" fill="#2EAE70"/>
</svg>
