<svg width="22" height="22" viewBox="0 0 22 22" fill="none" xmlns="http://www.w3.org/2000/svg">
<rect width="20" height="20" fill="black" fill-opacity="0" transform="translate(1 1)"/>
<circle cx="11" cy="11" r="10" stroke="#E8244C" stroke-width="2" stroke-linecap="square"/>
<path d="M11 11C9.34315 11 8 12.3431 8 14H14C14 12.3431 12.6569 11 11 11Z" fill="#E8244C"/>
<path d="M7 9C7 9.55228 6.55228 10 6 10C5.44772 10 5 9.55228 5 9C5 8.44772 5.44772 8 6 8C6.55228 8 7 8.44772 7 9Z" fill="#E8244C"/>
<path d="M17 9C17 9.55228 16.5523 10 16 10C15.4477 10 15 9.55228 15 9C15 8.44772 15.4477 8 16 8C16.5523 8 17 8.44772 17 9Z" fill="#E8244C"/>
<path fill-rule="evenodd" clip-rule="evenodd" d="M6 8.5C5.72386 8.5 5.5 8.72386 5.5 9C5.5 9.27614 5.72386 9.5 6 9.5C6.27614 9.5 6.5 9.27614 6.5 9C6.5 8.72386 6.27614 8.5 6 8.5ZM4.5 9C4.5 8.17157 5.17157 7.5 6 7.5C6.82843 7.5 7.5 8.17157 7.5 9C7.5 9.82843 6.82843 10.5 6 10.5C5.17157 10.5 4.5 9.82843 4.5 9ZM16 8.5C15.7239 8.5 15.5 8.72386 15.5 9C15.5 9.27614 15.7239 9.5 16 9.5C16.2761 9.5 16.5 9.27614 16.5 9C16.5 8.72386 16.2761 8.5 16 8.5ZM14.5 9C14.5 8.17157 15.1716 7.5 16 7.5C16.8284 7.5 17.5 8.17157 17.5 9C17.5 9.82843 16.8284 10.5 16 10.5C15.1716 10.5 14.5 9.82843 14.5 9Z" fill="#E8244C"/>
</svg>
