<svg width="24" height="17" viewBox="0 0 24 17" fill="none" xmlns="http://www.w3.org/2000/svg">
<rect width="20" height="15" fill="black" fill-opacity="0" transform="translate(22 2) scale(-1 1)"/>
<path d="M2 11.375C2 5.85215 6.47715 2 12 2C17.5228 2 22 5.85215 22 11.375" stroke="#FEFEFE" stroke-width="3" stroke-linecap="square"/>
<mask id="path-2-inside-1" fill="white">
<path d="M7 12C7 14.7614 9.23858 17 12 17C14.7614 17 17 14.7614 17 12C17 9.23858 14.7614 7 12 7C9.23858 7 7 9.23858 7 12Z"/>
</mask>
<path d="M10 12C10 13.1046 10.8954 14 12 14V20C7.58172 20 4 16.4183 4 12H10ZM12 14C13.1046 14 14 13.1046 14 12H20C20 16.4183 16.4183 20 12 20V14ZM14 12C14 10.8954 13.1046 10 12 10V4C16.4183 4 20 7.58172 20 12H14ZM12 10C10.8954 10 10 10.8954 10 12H4C4 7.58172 7.58172 4 12 4V10Z" fill="#FEFEFE" mask="url(#path-2-inside-1)"/>
</svg>
