<svg width="350" height="306" viewBox="0 0 350 306" fill="none" xmlns="http://www.w3.org/2000/svg">
<rect width="350" height="306" fill="black" fill-opacity="0"/>
<rect width="350" height="306" rx="10" fill="#53379B"/>
<rect width="307" height="154" fill="black" fill-opacity="0"/>
<path d="M295.577 26.9216C292.248 32.2577 293.637 29.1479 290.858 31.3743C288.08 33.6006 288.367 28.2645 284.75 36.7104C281.134 45.1564 275.885 50.0332 275.885 50.0332C275.885 50.0332 274.496 50.0332 266.183 58.4792C257.869 66.9251 258.421 62.4724 252.048 70.035C245.675 77.5975 246.778 76.714 239.567 79.3644C232.356 82.0148 230.415 78.0215 226.821 81.1313C223.227 84.2412 220.713 80.2479 216.28 86.8916C211.848 93.5706 206.291 96.221 201.021 97.988C195.751 99.7549 195.199 97.988 187.988 99.3308C180.778 100.674 179.388 93.9947 172.178 98.8714C164.967 103.748 163.864 98.412 158.594 104.208C153.324 109.968 151.934 105.55 144.459 110.887C136.961 116.223 133.367 109.12 128.097 113.537C122.826 117.954 125.605 110.427 118.107 117.99C110.61 125.552 123.642 121.1 109.243 125.552C94.8432 130.005 88.4483 130.888 85.4052 133.115C82.3621 135.341 79.0323 134.882 75.4159 137.108C71.8215 139.334 69.3076 136.649 66.2645 140.677C63.2215 144.706 61.5455 142.02 59.605 143.787C57.6645 145.554 59.0537 144.671 54.886 146.013C50.7183 147.356 39.3618 151.774 38.2592 152.692C37.1567 153.576 37.7079 152.692 36.032 153.152C34.3782 153.611 34.0915 153.152 32.9889 152.268C31.8864 151.385 30.7617 142.055 28.5566 144.282C26.3294 146.508 26.0648 143.398 22.735 145.625C19.4053 147.851 19.6919 146.084 16.6268 147.851C13.5837 149.618 13.297 149.618 11.6432 148.734C9.9893 147.78 0 154 0 154V59.7867C0 59.7867 31.3351 41.5519 33.8269 38.9014C36.3187 36.251 36.0541 31.3389 38.2592 32.2224C40.4864 33.1059 31.8864 33.5653 46.308 31.763C60.7296 29.9961 63.2214 26.4268 66.5512 23.317C69.881 20.2072 70.1456 17.0974 74.0487 17.0974C77.9518 17.0974 80.7082 15.7545 80.7082 15.7545C80.7082 15.7545 89.0216 15.7545 90.6975 16.638C92.3514 17.5215 94.2919 16.1786 95.4165 14.871C96.5412 13.5635 100.136 6.42507 101.525 6.88447C102.914 7.34388 102.627 4.65813 104.303 6.001C105.957 7.34388 105.957 -0.846705 108.184 0.0721042C110.412 0.955575 307 0.0721042 307 0.0721042L302.237 19.7831C302.237 24.2358 300.583 22.4336 299.745 23.3524C298.907 24.2712 299.745 22.893 300.032 25.5787C300.318 28.2645 295.577 26.9216 295.577 26.9216Z" fill="#3DE292"/>
<path d="M100 306H222.446C227.822 301.711 228.419 288.844 228.419 282.41C228.419 275.976 237.976 282.41 234.392 275.547C230.808 268.685 233.197 272.974 245.143 263.538C252.311 260.536 250.519 260.964 245.143 257.962C239.768 254.96 245.143 254.102 245.143 241.664C242.754 236.517 245.143 238.232 250.519 233.943C255.895 229.654 257.686 230.941 257.686 227.081V220.647C262.465 220.647 272.738 217.473 275.605 204.777C279.189 201.775 278.592 197.057 290.538 179.472C295.316 176.469 297.705 176.04 307.262 161.457C316.819 158.026 307.859 157.597 314.43 146.445C318.014 142.585 316.819 142.585 316.819 140.441C316.819 138.725 319.606 129.432 321 125H316.819V129.289C313.434 130.719 306.068 134.007 303.678 135.723C301.289 137.438 298.701 139.583 297.705 140.441C295.914 141.585 291.971 144.73 290.538 148.161C289.104 151.592 286.755 151.021 285.759 150.306C283.37 151.021 277.278 154.938 272.022 164.889C265.451 177.327 260.673 171.322 254.103 176.04C247.532 180.758 253.505 179.472 250.519 182.474C248.13 184.876 245.94 183.475 245.143 182.474L237.976 185.476C235.786 189.336 230.808 197.057 228.419 197.057C225.432 197.057 222.446 201.775 222.446 204.777C222.446 207.78 217.668 212.498 211.695 211.64C206.916 210.954 205.722 217.359 205.722 220.647C203.93 221.219 197.837 223.306 187.803 227.081C185.414 228.796 183.622 230.512 180.635 233.943C178.246 236.688 177.25 237.946 177.051 238.232C174.264 238.804 167.972 240.291 165.105 241.664C162.238 243.036 161.522 244.523 161.522 245.095C159.929 247.382 156.385 252.386 154.951 254.102C153.518 255.818 149.177 261.107 147.186 263.538C145.992 267.541 143.125 274.432 141.214 269.972C139.302 265.511 134.842 270.115 132.851 272.974C131.458 274.118 127.954 276.234 125.086 275.547C121.503 274.69 118.516 278.979 118.516 282.41C118.516 285.841 113.141 290.988 107.168 293.991C102.389 296.392 100.398 302.998 100 306Z" fill="#FBCA50"/>
</svg>
