<svg width="350" height="590" viewBox="0 0 350 590" fill="none" xmlns="http://www.w3.org/2000/svg">
<rect width="350" height="590" fill="black" fill-opacity="0"/>
<rect width="350" height="590" rx="10" fill="#FBCA50"/>
<rect width="350" height="590" fill="black" fill-opacity="0"/>
<path d="M0 321V224.73C0 224.73 3.85196 220.46 7.70392 222.103C11.5559 223.745 11.5559 221.555 13.757 218.818C15.9581 216.08 16.5084 215.533 18.1592 213.89C19.8101 212.248 15.9581 208.416 19.8101 212.248C23.662 216.08 19.2598 213.89 28.6146 213.89C37.9693 205.868 44.5727 204.225 48.9749 204.773C53.3772 205.32 55.5783 203.678 55.5783 203.678C57.2291 207.51 59.9805 201.488 61.6314 202.036C63.2822 202.583 61.6314 200.941 68.785 205.868C75.9387 210.795 78.5335 208.058 79.634 210.795C80.7346 213.533 81.2849 219.007 87.338 214.628C93.391 210.248 92.8408 205.868 95.5922 205.868C98.3436 205.868 98.8938 203.131 101.645 207.51C104.397 211.89 105.497 209.153 107.698 214.08C109.899 219.007 111 221.745 111 221.745C111 221.745 99.4441 232.147 96.1424 236.527C92.8408 240.907 95.0419 237.622 91.7402 243.097C88.4385 248.571 90.0894 246.929 82.9357 251.856C75.7821 256.784 63.8325 263.163 61.6314 265.353C59.4303 267.543 62.1817 264.806 58.3297 275.208C54.4777 285.61 53.9275 287.253 52.2766 289.443C50.6258 291.632 52.2766 289.99 46.7738 292.18C41.271 294.37 37.9693 292.727 37.9693 292.727L34.1174 297.655C34.1174 297.655 33.0168 296.56 29.7151 298.202C26.4134 299.845 26.4134 301.487 24.2123 303.13C22.0112 304.772 24.2123 304.772 22.0112 304.772C19.8101 304.772 15.9581 302.582 14.3073 303.13C12.6564 303.677 12.6564 305.319 11.5559 307.509C10.4553 309.699 11.0056 309.699 9.35476 312.984C7.70392 316.269 0 321 0 321Z" fill="#F1BC38"/>
<path d="M346.073 97C343.817 97 341.645 100.34 339.389 102.011C337.134 103.681 334.961 105.936 326.607 108.691C318.252 111.447 320.508 110.362 317.166 112.032C313.824 113.702 312.738 113.702 310.482 114.788C308.226 115.873 306.555 115.372 303.213 118.713C299.871 122.053 297.114 124.809 293.188 127.648C289.261 130.404 289.846 130.989 285.418 137.669C280.99 144.35 284.332 140.425 267.037 140.425C249.743 140.425 254.756 141.511 250.328 146.521C245.9 151.532 248.072 149.277 246.401 155.457C244.73 161.553 244.145 162.722 243.059 168.819C241.973 174.915 237.461 172.743 234.704 174.915C231.947 177.17 231.362 177.671 225.765 181.011C220.167 184.351 223.509 183.767 221.838 189.947C220.167 196.043 218.496 200.552 216.825 203.893C215.154 207.233 212.898 208.903 204.042 212.828C195.103 216.753 201.285 215.584 197.943 220.094C194.601 224.52 194.601 226.19 182.32 234.04C170.038 241.806 170.623 241.305 165.025 242.391C159.428 243.476 158.342 244.645 153.329 247.986C148.316 251.326 146.06 256.921 142.718 264.688C139.376 272.454 139.376 277.465 131.022 284.73C122.667 291.996 120.411 299.177 117.654 303.102C114.897 307.027 109.299 314.794 104.871 320.389C100.443 325.984 79.222 322.059 77.0498 328.74C74.794 335.421 75.9637 333.166 74.794 339.346C73.7079 345.442 74.794 343.271 73.123 345.442C71.4521 347.697 72.0369 348.198 66.4392 351.538C60.8415 354.879 84.2349 366.57 72.5382 368.24C60.8415 369.91 56.9148 369.91 54.7426 364.315C52.4868 358.72 59.1706 358.72 58.6693 352.624C58.0845 346.528 56.9983 350.369 51.9855 343.187C46.9726 336.005 50.3145 344.273 47.5575 349.283C44.8004 354.294 42.5446 351.538 37.5317 347.613C32.5189 343.688 37.5317 352.624 42.5446 360.975C47.5575 369.326 40.8736 364.315 35.8608 363.23C30.8479 362.144 35.2759 368.825 33.605 385.527C33.4379 387.03 33.3544 388.283 33.2708 389.368C32.7695 390.12 32.1011 390.788 31.3492 391.038C28.5921 392.124 31.3492 391.038 33.0202 395.464C34.6911 399.89 34.1063 398.22 37.4482 403.231C40.7901 408.241 34.6911 408.241 34.6911 408.241C34.6911 408.241 15.8093 410.997 11.8826 410.997C7.95586 410.997 11.2978 414.922 11.8826 418.263C12.4674 421.603 11.8826 418.263 17.9816 420.517C24.0806 422.772 29.0934 426.112 31.3492 422.188C33.605 418.263 33.0202 421.603 39.1191 418.847C45.2181 416.091 39.1191 418.847 43.5472 417.177C47.9752 415.507 51.9019 421.102 70.2824 412.751C88.6629 404.4 74.7104 411.665 81.3943 408.325C88.0781 404.984 85.8223 407.74 90.3339 404.4C94.7619 401.06 90.3339 404.4 95.9316 401.644C101.529 398.888 100.944 400.558 107.628 398.888C114.312 397.218 110.97 397.218 118.74 394.963C126.51 392.709 120.996 392.709 128.181 392.709C135.366 392.709 132.609 393.293 136.536 389.368C140.462 385.443 138.207 386.612 142.635 381.017C147.063 375.422 157.673 379.347 157.673 379.347C157.673 379.347 161.015 378.261 173.297 373.251C185.578 368.24 179.981 370.495 186.664 367.155C193.348 363.814 190.591 363.23 191.677 359.388C191.761 359.054 191.844 358.72 191.928 358.553C192.095 358.971 192.763 359.138 194.518 358.302C198.946 356.048 198.445 354.962 210.141 346.611C221.838 338.26 213.483 344.941 217.41 344.356C221.337 343.772 223.008 345.442 227.436 341.016C231.864 336.59 226.851 338.761 231.362 332.08C232.866 329.742 233.451 328.74 233.618 328.322C233.535 328.656 233.618 329.241 234.704 329.241C237.461 329.241 235.79 330.911 238.046 330.327C240.302 329.742 238.046 330.327 239.717 325.901C241.388 321.475 239.717 325.901 240.803 319.804C241.889 313.708 244.145 323.145 248.573 327.07C253.001 330.995 248.573 327.07 250.829 325.4C253.085 323.729 254.171 326.485 258.098 324.815C262.024 323.145 259.184 319.22 261.439 315.879C263.695 312.539 262.526 312.539 266.452 311.453C270.379 310.368 267.538 317.55 267.538 319.804C267.538 322.059 270.88 319.22 273.136 315.879C275.392 312.539 278.734 311.954 284.248 306.944C289.846 301.933 286.504 304.689 287.59 300.848C288.676 296.923 293.188 301.432 295.945 300.848C298.702 300.263 299.871 298.593 300.373 294.751C300.874 290.91 307.057 290.826 307.057 290.826C307.057 290.826 309.814 291.411 310.983 286.901C312.069 282.475 314.91 284.647 314.91 284.647C314.91 284.647 320.508 281.306 324.936 280.221C329.364 279.135 328.862 276.296 332.204 271.87C335.546 267.444 333.875 269.615 335.546 265.773C337.217 261.849 350 254.082 350 254.082V104.766C350 104.766 348.329 97 346.073 97Z" fill="#F1BC38"/>
<path d="M55 590H207.919C214.632 584.645 215.378 568.578 215.378 560.545C215.378 552.512 227.314 560.545 222.838 551.976C218.362 543.408 221.346 548.763 236.265 536.981C245.216 533.232 242.978 533.768 236.265 530.019C229.551 526.27 236.265 525.199 236.265 509.668C233.281 503.242 236.265 505.384 242.978 500.028C249.692 494.673 251.93 496.28 251.93 491.46V483.427C257.897 483.427 270.728 479.464 274.308 463.611C278.784 459.863 278.038 453.972 292.957 432.014C298.924 428.265 301.908 427.73 313.843 409.521C325.778 405.237 314.589 404.701 322.795 390.777C327.27 385.957 325.778 385.957 325.778 383.28C325.778 381.137 329.259 369.534 331 364H325.778V369.355C321.551 371.141 312.351 375.246 309.368 377.389C306.384 379.531 303.151 382.209 301.908 383.28C299.67 384.708 294.747 388.635 292.957 392.919C291.167 397.204 288.232 396.49 286.989 395.597C284.005 396.49 276.397 401.381 269.832 413.806C261.627 429.337 255.659 421.839 247.454 427.73C239.249 433.621 246.708 432.014 242.978 435.763C239.995 438.762 237.259 437.013 236.265 435.763L227.314 439.512C224.578 444.332 218.362 453.972 215.378 453.972C211.649 453.972 207.919 459.863 207.919 463.611C207.919 467.36 201.951 473.251 194.492 472.18C188.524 471.323 187.032 479.321 187.032 483.427C184.795 484.141 177.186 486.747 164.654 491.46C161.67 493.602 159.432 495.744 155.703 500.028C152.719 503.456 151.476 505.027 151.227 505.384C147.746 506.098 139.889 507.955 136.308 509.668C132.728 511.382 131.832 513.239 131.832 513.953C129.843 516.809 125.417 523.057 123.627 525.199C121.837 527.341 116.416 533.946 113.93 536.981C112.438 541.979 108.857 550.584 106.47 545.014C104.083 539.445 98.5135 545.193 96.027 548.763C94.2865 550.191 89.9103 552.833 86.3297 551.976C81.8541 550.905 78.1243 556.261 78.1243 560.545C78.1243 564.829 71.4108 571.256 63.9514 575.005C57.9838 578.004 55.4973 586.251 55 590Z" fill="#F1BC38"/>
<path d="M0 140V10C0 4.47716 4.47715 0 10 0H291C284.165 1.4629 270.496 5.09091 270.496 7.89969C270.496 11.4107 272.862 11.8495 270.496 13.1661C268.13 14.4828 259.455 13.1661 257.878 13.1661C256.967 13.1661 254.495 17.5115 253.19 16.7917C253.282 19.5648 251.964 22.3824 246.837 22.3824C233.431 22.3824 235.008 19.3103 231.065 24.5768C225.545 35.5486 223.179 34.6708 220.024 35.5486C208.195 43.0094 205.829 41.2539 203.463 43.0094C198.732 48.2759 188.48 36.8652 188.48 41.2539C188.48 45.6426 194 47.837 188.48 50.9091C182.959 53.9812 179.016 52.6646 179.016 53.9812C179.016 60.1254 176.151 64.8421 172.089 63.1975C165.536 60.5445 167.187 63.1975 160.878 63.1975C147.472 68.0251 147.472 63.6364 141.951 71.536C131.857 77.8558 131.098 100.371 128.882 78.1053C121.127 89.8947 123.971 81.0157 121.447 82.069C118.293 83.3856 114.35 81.1912 114.35 83.8244C114.35 89.5298 107.252 86.8965 104.886 88.2132C96.2114 92.6019 98.5772 87.7743 97.7886 94.3574C97 100.94 93.0569 98.3072 85.9594 101.379C75.7073 108.401 76.4959 104.451 76.4959 110.157C76.4959 114.721 74.6401 114.579 72.0114 114.579C72.0114 111.085 66.4721 118.632 63.5178 115.862C55.6216 111.912 52.8374 110.157 53.626 115.862C54.4146 121.567 53.626 121.129 49.6829 122.006C42.5854 124.201 40.2195 122.884 37.8537 124.201C18.9268 132.539 21.2927 127.712 14.1951 130.784C7.09756 133.856 4.73171 133.417 3.94309 135.172C3.3122 136.577 1.05149 138.976 0 140Z" fill="#F1BC38"/>
</svg>
