<svg width="142" height="18" viewBox="0 0 142 18" fill="none" xmlns="http://www.w3.org/2000/svg">
<path fill-rule="evenodd" clip-rule="evenodd" d="M129.269 1.68199H137.846C138.755 1.68199 139.628 2.04283 140.271 2.68513C140.915 3.32742 141.276 4.19857 141.276 5.10691V13.6692C141.276 14.5776 140.915 15.4487 140.271 16.091C139.628 16.7333 138.755 17.0941 137.846 17.0941H129.269C128.36 17.0941 127.487 16.7333 126.844 16.091C126.2 15.4487 125.839 14.5776 125.839 13.6692V5.10691C125.839 4.19857 126.2 3.32742 126.844 2.68513C127.487 2.04283 128.36 1.68199 129.269 1.68199ZM133.558 5.96314C134.236 5.96314 134.899 6.16401 135.463 6.54034C136.028 6.91668 136.467 7.45158 136.727 8.0774C136.987 8.70322 137.054 9.39186 136.922 10.0562C136.79 10.7206 136.463 11.3309 135.983 11.8098C135.503 12.2888 134.892 12.615 134.227 12.7472C133.561 12.8793 132.872 12.8115 132.245 12.5523C131.618 12.2931 131.082 11.8541 130.705 11.2908C130.328 10.7276 130.127 10.0654 130.127 9.38806C130.127 8.47972 130.488 7.60857 131.132 6.96628C131.775 6.32398 132.648 5.96314 133.558 5.96314ZM137.846 4.25068C138.015 4.25068 138.181 4.3009 138.322 4.39498C138.463 4.48907 138.573 4.62279 138.638 4.77925C138.703 4.9357 138.72 5.10786 138.687 5.27395C138.654 5.44005 138.572 5.59261 138.452 5.71236C138.332 5.8321 138.179 5.91365 138.013 5.94669C137.847 5.97973 137.674 5.96277 137.517 5.89796C137.361 5.83316 137.227 5.72341 137.133 5.58261C137.038 5.4418 136.988 5.27626 136.988 5.10691C136.988 4.87983 137.078 4.66204 137.239 4.50147C137.4 4.34089 137.618 4.25068 137.846 4.25068Z" fill="#53379B"/>
<path fill-rule="evenodd" clip-rule="evenodd" d="M5.14573 4.26259V6.83128H7.7186L6.86098 9.39997H5.14573V17.106H2.57287V9.39997H0V6.83128H2.57287V4.26259C2.57287 1.77952 3.80613 0.825684 5.79238 0.825684C6.43731 0.827182 7.08122 0.877272 7.7186 0.975524V3.40636H6.00335C5.78239 3.42565 5.5753 3.52206 5.41846 3.67864C5.26162 3.83523 5.16505 4.04198 5.14573 4.26259Z" fill="#53379B"/>
<path fill-rule="evenodd" clip-rule="evenodd" d="M74.3043 9.29868C74.3043 9.29868 76.7914 6.0373 77.0376 4.9653C77.0668 4.88861 77.0745 4.80541 77.0599 4.72465C77.0453 4.6439 77.0089 4.56865 76.9547 4.507C76.9004 4.44535 76.8303 4.39964 76.752 4.37479C76.6737 4.34993 76.59 4.34687 76.5101 4.36594H74.3532C74.1811 4.34604 74.0073 4.38321 73.8585 4.47172C73.7097 4.56024 73.5942 4.69517 73.5299 4.85571C72.8321 6.21587 71.9638 7.48185 70.9459 8.62312C70.839 8.78333 70.7007 8.9202 70.5392 9.02544C70.3778 9.13067 70.1967 9.20208 70.0068 9.23532C69.8044 9.23532 69.7109 9.07777 69.7109 8.65308V4.93448C69.7109 4.41389 69.6448 4.26063 69.1834 4.26063H65.7264C65.6758 4.25228 65.6239 4.25455 65.5743 4.26728C65.5246 4.28002 65.4781 4.30294 65.4377 4.33459C65.3974 4.36624 65.3641 4.40593 65.34 4.45113C65.3158 4.49633 65.3014 4.54605 65.2976 4.59712C65.2976 5.08774 66.1046 5.19649 66.1046 6.52707V9.267C66.1046 9.81841 66.0711 10.0325 65.7915 10.0325C65.0506 10.0325 63.289 7.659 62.301 4.96359C62.2648 4.74228 62.1424 4.54423 61.9606 4.41257C61.7787 4.2809 61.5522 4.22629 61.3302 4.26063H59.1741C59.1057 4.25461 59.0368 4.26276 58.9717 4.28455C58.9066 4.30635 58.8467 4.34133 58.7957 4.3873C58.7447 4.43327 58.7038 4.48924 58.6755 4.55172C58.6473 4.61419 58.6322 4.68183 58.6313 4.75039C58.6313 5.28639 59.3062 7.76689 61.9571 11.0865C62.6741 12.0851 63.6041 12.9123 64.6801 13.5087C65.756 14.1051 66.9511 14.4558 68.1792 14.5354C69.4656 14.5354 69.7769 14.3367 69.7769 13.8307V12.1182C69.7769 11.6901 69.9579 11.506 70.2212 11.506C70.517 11.506 71.0402 11.5917 72.2623 12.7159C73.7117 14.0002 73.8103 14.538 74.6002 14.538H77.0204C77.0865 14.5464 77.1537 14.5393 77.2165 14.5173C77.2794 14.4953 77.3363 14.4589 77.3827 14.4112C77.429 14.3634 77.4636 14.3055 77.4836 14.242C77.5037 14.1786 77.5086 14.1113 77.4981 14.0456C77.4981 13.5404 76.7906 12.6371 75.7031 11.5626C75.2588 11.0111 74.535 10.4143 74.3043 10.1386C73.975 9.81927 74.0736 9.63518 74.3043 9.29868Z" fill="#53379B"/>
</svg>
