<svg width="50" height="50" viewBox="0 0 50 50" fill="none" xmlns="http://www.w3.org/2000/svg">
<path d="M23.2131 0.0623619C17.2447 0.505959 11.8006 2.96014 7.5259 7.13687C1.90316 12.6213 -0.792989 20.3872 0.203664 28.1876C1.44804 37.9409 8.32668 46.064 17.7747 48.9387C25.0797 51.1624 33.2084 49.8432 39.4015 45.436C47.0118 40.0149 50.9696 31.022 49.7944 21.8159C48.55 12.0625 41.6714 3.93952 32.2233 1.06478C29.4119 0.206387 26.1339 -0.156556 23.2131 0.0623619ZM25.12 15.5537C26.3989 15.6804 27.0384 15.8821 27.3265 16.2565C27.4014 16.3602 27.5223 16.6137 27.5915 16.8211C27.7413 17.259 27.747 17.7602 27.6548 21.5048C27.5972 23.8438 27.6318 24.5639 27.8219 25.0824C28.0466 25.6758 28.542 25.9465 28.9799 25.7219C29.3774 25.5145 30.3049 24.4948 30.9098 23.5903C32.3097 21.5163 33.1624 19.909 34.1878 17.426C34.3952 16.9363 34.6717 16.6137 34.9598 16.5388C35.075 16.5043 36.7054 16.4755 38.7102 16.4697L42.2532 16.4582L42.5528 16.5849C42.9388 16.7577 43.0886 16.9824 43.0886 17.3915C43.0886 18.1692 42.2763 19.765 40.8821 21.718C40.692 21.9887 39.9719 22.9451 39.2863 23.8495C37.7712 25.8428 37.4428 26.3095 37.2123 26.7934C36.9243 27.4041 36.9934 27.9053 37.4485 28.4987C37.581 28.6657 38.2493 29.3398 38.9349 29.9965C40.8533 31.8343 41.7232 32.8021 42.4318 33.8622C42.9388 34.6284 43.1346 35.193 43.054 35.6769C43.0137 35.9419 42.7487 36.2587 42.4491 36.4143C42.0919 36.5929 41.5446 36.6274 38.5316 36.6678L35.6799 36.7081L35.219 36.5525C34.0438 36.1608 33.2603 35.5098 31.4801 33.4474C30.495 32.3067 29.7634 31.7479 29.2564 31.7421C28.7898 31.7421 28.1964 32.3643 27.9429 33.1363C27.7701 33.6548 27.7067 34.0523 27.6548 34.951C27.5915 36.011 27.4647 36.2587 26.8137 36.5295C26.5775 36.6332 23.6394 36.6678 22.8617 36.5871C21.3005 36.4143 19.8544 35.9246 18.42 35.0777C16.3402 33.8564 15.067 32.7618 13.7017 31.022C11.3282 27.9917 9.70932 25.4108 7.74482 21.5163C6.98436 20.0012 6.09141 18.0424 5.94738 17.5758C5.80336 17.0919 6.01075 16.6944 6.48316 16.5446C6.64446 16.4927 7.54318 16.4639 9.61714 16.4351L12.5264 16.4063L12.8663 16.5331C13.4021 16.7405 13.6268 17.0055 13.9897 17.8869C14.3008 18.6301 15.9773 21.9945 16.5015 22.9335C17.0373 23.8841 17.6077 24.6791 18.0973 25.1515C18.7022 25.7449 18.973 25.8889 19.3993 25.8544C19.7623 25.8198 19.8602 25.7391 20.0849 25.2495C20.6322 24.0685 20.7186 20.0761 20.2289 18.5091C19.9466 17.6161 19.5261 17.2762 18.3623 17.0285C18.1607 16.9824 18.1607 16.9133 18.3451 16.6425C18.7944 15.9973 19.5952 15.6862 21.1219 15.5595C21.9572 15.4903 24.4344 15.4846 25.12 15.5537Z" fill="#45668E"/>
</svg>
