<svg width="50" height="50" viewBox="0 0 50 50" fill="none" xmlns="http://www.w3.org/2000/svg">
<circle cx="25" cy="25" r="25" fill="#F1F1F1"/>
<path d="M25.8037 30.5017L21.4119 34.893C19.8144 36.4901 17.1005 36.3765 15.3628 34.6391C13.625 32.9007 13.5107 30.188 15.1086 28.5892L20.0846 23.6134C21.6824 22.0156 24.3961 22.1299 26.1339 23.8673C26.8738 24.607 27.3162 25.5232 27.4605 26.4553C28.1044 26.388 28.7115 26.1243 29.1841 25.652L29.3674 25.4688C29.0739 24.3535 28.4891 23.2855 27.6021 22.399C25.0544 19.8513 21.023 19.7373 18.6158 22.1451L13.64 27.1209C11.2323 29.528 11.3465 33.56 13.8941 36.1078C16.4416 38.6552 20.4729 38.7691 22.8807 36.3617L27.8564 31.3859C28.1382 31.1042 28.383 30.7979 28.5958 30.4758C27.6832 30.6634 26.7352 30.6674 25.8037 30.5017Z" fill="#474747"/>
<path d="M27.1244 13.6384L22.1479 18.6145C21.8655 18.8971 21.6211 19.2035 21.4078 19.5257C22.3207 19.3387 23.269 19.333 24.1999 19.4997L28.5926 15.107C30.19 13.5093 32.9041 13.6236 34.6418 15.3612C36.3798 17.0993 36.4941 19.8127 34.896 21.4105L29.9204 26.3866C28.3226 27.9844 25.6092 27.8704 23.871 26.1324C23.1311 25.3926 22.6888 24.4758 22.5444 23.5441C21.9006 23.6107 21.293 23.876 20.8207 24.3477L20.6377 24.531C20.9311 25.6466 21.5159 26.7143 22.4028 27.601C24.9505 30.1488 28.9819 30.2623 31.3893 27.8553L36.3647 22.8794C38.7725 20.4716 38.6582 16.4404 36.1108 13.893C33.5637 11.3452 29.5318 11.2306 27.1244 13.6384Z" fill="#474747"/>
</svg>
